<svg xmlns="http://www.w3.org/2000/svg" width="64" height="64" viewBox="0 0 64 64">
  <defs>
    <linearGradient id="html-gradient" x1="0%" y1="0%" x2="100%" y2="100%">
      <stop offset="0%" stop-color="#E44D26" />
      <stop offset="100%" stop-color="#F16529" />
    </linearGradient>
    <linearGradient id="css-gradient" x1="0%" y1="0%" x2="100%" y2="100%">
      <stop offset="0%" stop-color="#264DE4" />
      <stop offset="100%" stop-color="#2965F1" />
    </linearGradient>
  </defs>
  <g>
    <!-- HTML5 Shield (Left) -->
    <path d="M18,8 L14,44 L26,48 L26,48 L26,48 L26,48 L26,48 L26,48 L26,48 L26,48 L26,48 L26,48 L26,48 Z" fill="url(#html-gradient)" />
    <path d="M26,13 L26,44 L22,42 L19,13 Z" fill="#FFFFFF" />
    <path d="M22,16 L22,19 L19,19 L19,22 L22,22 L22,28 L19,28 L19,31 L22,31 L22,34 L19,34 L19,37 L25,37 L25,16 Z" fill="#EBEBEB" />
    
    <!-- CSS3 Shield (Right) -->
    <path d="M46,8 L50,44 L38,48 L38,48 L38,48 L38,48 L38,48 L38,48 L38,48 L38,48 L38,48 L38,48 L38,48 Z" fill="url(#css-gradient)" />
    <path d="M38,13 L38,44 L42,42 L45,13 Z" fill="#FFFFFF" />
    <path d="M42,19 L45,19 L45,16 L39,16 L39,37 L45,37 L45,34 L42,34 L42,31 L45,31 L45,28 L42,28 L42,22 L45,22 L45,19 Z" fill="#EBEBEB" />
    
    <!-- Connecting Element -->
    <rect x="31" y="13" width="2" height="35" fill="#333333" />
  </g>
</svg>
