<?xml version="1.0" encoding="UTF-8"?>
<svg xmlns="http://www.w3.org/2000/svg" width="256" height="256" viewBox="0 0 256 256">
  <path fill="#5865F2" d="M128 0C57.308 0 0 57.308 0 128c0 70.692 57.308 128 128 128s128-57.308 128-128C256 57.308 198.692 0 128 0Z"/>
  <path fill="#FFF" d="M197.533 75.312c-14.789-11.988-38.605-13.803-39.655-13.855a5.76 5.76 0 0 0-4.82 2.064c-.193.222-4.737 5.251-8.73 13.355a153.975 153.975 0 0 0-33.601-.312c-3.991-8.107-8.54-13.137-8.735-13.359a5.76 5.76 0 0 0-4.819-2.064c-1.05.052-24.867 1.867-39.802 14.007-7.314 6.355-21.911 44.228-21.911 77.273 0 .595.075 1.18.225 1.747 7.541 20.193 37.292 25.534 43.496 25.795.011 0 .237.012.248.012a5.767 5.767 0 0 0 4.167-1.797l14.992-14.997c-18.322-4-26.453-12.917-26.8-13.271a5.764 5.764 0 0 1-.075-8.134c.225-.23.446-.458.735-.595a5.678 5.678 0 0 1 3.054-.911 5.74 5.74 0 0 1 3.339 1.065c.15.116 15.242 10.879 36.404 10.879 21.257 0 36.352-10.767 36.508-10.883a5.734 5.734 0 0 1 3.339-1.065c1.118 0 2.234.316 3.053.91.29.142.51.372.735.601a5.768 5.768 0 0 1-.075 8.124c-.347.359-8.478 9.277-26.8 13.277l14.472 14.997c.008.01.02.01.03.021a5.736 5.736 0 0 0 4.158 1.776c.01 0 .236-.01.246-.01 6.204-.262 35.955-5.603 43.496-25.795.15-.568.226-1.152.226-1.747 0-33.045-14.59-70.918-22.054-77.422ZM99.174 146.203c-8.106 0-14.685-7.27-14.685-16.218s6.579-16.217 14.685-16.217c8.105 0 14.684 7.27 14.684 16.217s-6.58 16.218-14.684 16.218Zm59.921 0c-8.106 0-14.685-7.27-14.685-16.218s6.579-16.217 14.685-16.217c8.105 0 14.684 7.27 14.684 16.217s-6.58 16.218-14.684 16.218Z"/>
</svg>
