<?xml version="1.0" encoding="UTF-8"?>
<svg xmlns="http://www.w3.org/2000/svg" width="256" height="256" viewBox="0 0 256 256">
  <defs>
    <radialGradient id="a" cx="0" cy="0" r="1" gradientTransform="rotate(-180 233 77) scale(466.56)" gradientUnits="userSpaceOnUse">
      <stop offset="0" stop-color="#ffdd55"/>
      <stop offset=".1" stop-color="#ffdd55"/>
      <stop offset=".5" stop-color="#ff543e"/>
      <stop offset="1" stop-color="#c837ab"/>
    </radialGradient>
    <radialGradient id="b" cx="0" cy="0" r="1" gradientTransform="matrix(104.96 423.84 1799.15 -445.44 33.36 -329.76)" gradientUnits="userSpaceOnUse">
      <stop offset="0" stop-color="#3771c8"/>
      <stop offset=".13" stop-color="#3771c8"/>
      <stop offset="1" stop-color="#6600ff" stop-opacity="0"/>
    </radialGradient>
  </defs>
  <path fill="url(#a)" d="M128 256c70.692 0 128-57.308 128-128C256 57.308 198.692 0 128 0 57.308 0 0 57.308 0 128c0 70.692 57.308 128 128 128Z"/>
  <path fill="url(#b)" d="M128 256c70.692 0 128-57.308 128-128C256 57.308 198.692 0 128 0 57.308 0 0 57.308 0 128c0 70.692 57.308 128 128 128Z"/>
  <path fill="#FFF" d="M128.009 61c-18.26 0-20.552.077-27.73.405-7.16.326-12.046 1.463-16.33 3.124a32.95 32.95 0 0 0-11.9 7.748 32.959 32.959 0 0 0-7.748 11.9c-1.66 4.283-2.797 9.17-3.123 16.33-.329 7.178-.405 9.47-.405 27.73 0 18.259.077 20.55.405 27.729.327 7.16 1.463 12.046 3.124 16.33a32.95 32.95 0 0 0 7.748 11.899 32.955 32.955 0 0 0 11.9 7.748c4.283 1.661 9.17 2.797 16.33 3.123 7.177.329 9.47.405 27.73.405 18.26 0 20.551-.076 27.73-.405 7.16-.326 12.046-1.462 16.33-3.123a32.946 32.946 0 0 0 11.899-7.748 32.968 32.968 0 0 0 7.748-11.9c1.661-4.283 2.797-9.17 3.123-16.33.329-7.177.405-9.47.405-27.73 0-18.259-.076-20.551-.405-27.73-.326-7.16-1.462-12.046-3.123-16.33a32.968 32.968 0 0 0-7.748-11.899 32.935 32.935 0 0 0-11.9-7.748c-4.283-1.661-9.17-2.797-16.33-3.123-7.178-.329-9.47-.405-27.73-.405h.009Zm-6.039 12.12c1.795-.003 3.794 0 6.038 0 17.955 0 20.08.068 27.186.392 6.565.3 10.132 1.395 12.503 2.318 3.143 1.222 5.384 2.68 7.74 5.036 2.356 2.356 3.814 4.597 5.036 7.739.923 2.37 2.019 5.938 2.318 12.503.324 7.105.393 9.233.393 27.185 0 17.952-.07 20.078-.393 27.183-.3 6.564-1.395 10.133-2.318 12.503-1.222 3.142-2.68 5.384-5.036 7.74-2.356 2.355-4.597 3.813-7.74 5.035-2.37.923-5.938 2.019-12.502 2.318-7.105.324-9.233.393-27.187.393-17.955 0-20.082-.069-27.187-.394-6.564-.299-10.132-1.395-12.503-2.317-3.142-1.222-5.384-2.68-7.74-5.036-2.355-2.356-3.814-4.597-5.035-7.74-.924-2.37-2.02-5.938-2.319-12.503-.324-7.105-.392-9.231-.392-27.189 0-17.957.068-20.08.392-27.186.3-6.565 1.395-10.132 2.319-12.503 1.221-3.142 2.68-5.384 5.035-7.74 2.356-2.355 4.598-3.813 7.74-5.035 2.37-.924 5.939-2.02 12.503-2.319 6.214-.283 8.63-.37 21.15-.384v.017Zm41.965 11.171a8.076 8.076 0 1 0 0 16.15 8.075 8.075 0 0 0 0-16.149Zm-35.926 9.442c-19.038 0-34.476 15.437-34.476 34.476 0 19.038 15.438 34.474 34.476 34.474 19.039 0 34.475-15.436 34.475-34.474 0-19.039-15.436-34.476-34.475-34.476Zm0 12.12c12.345 0 22.356 10.01 22.356 22.356 0 12.344-10.011 22.355-22.356 22.355-12.346 0-22.356-10.011-22.356-22.355 0-12.345 10.01-22.356 22.356-22.356Z"/>
</svg>
