<?xml version="1.0" encoding="UTF-8"?>
<svg xmlns="http://www.w3.org/2000/svg" width="256" height="256" viewBox="0 0 256 256">
  <defs>
    <linearGradient id="a" x1="0%" x2="100%" y1="50%" y2="50%">
      <stop offset="0%" stop-color="#00B2FF"/>
      <stop offset="100%" stop-color="#006AFF"/>
    </linearGradient>
  </defs>
  <path fill="url(#a)" d="M128 0C57.307 0 0 53.532 0 128c0 38.37 15.467 71.785 40.67 94.124 1.35 1.16 2.157 2.8 2.238 4.573l.41 14.523c.147 5.223 5.567 8.71 10.422 6.698l16.19-6.713a7.77 7.77 0 0 1 5.753-.225c16.6 5.803 34.742 8.994 53.778 8.836 74.357-.863 133.927-56.967 133.538-131.4C262.54 52.528 203.406 0 128 0Z"/>
  <path fill="#FFF" d="m53.195 161.86 30.085-47.622c4.785-7.57 14.934-9.876 22.634-5.147L139.42 132.6a5.818 5.818 0 0 0 6.928-.026l28.45-21.48c4.01-3.03 9.13 1.708 5.914 5.475l-30.087 47.62c-4.785 7.568-14.93 9.874-22.634 5.146L94.487 145.83a5.818 5.818 0 0 0-6.928.026l-28.45 21.482c-4.01 3.03-9.13-1.71-5.914-5.477Z"/>
</svg>
