<?xml version="1.0" encoding="UTF-8"?>
<svg xmlns="http://www.w3.org/2000/svg" width="256" height="256" viewBox="0 0 256 256">
  <defs>
    <linearGradient id="a" x1="50%" x2="50%" y1="0%" y2="100%">
      <stop offset="0%" stop-color="#2AABEE"/>
      <stop offset="100%" stop-color="#229ED9"/>
    </linearGradient>
  </defs>
  <path fill="url(#a)" d="M128 0C57.307 0 0 57.307 0 128s57.307 128 128 128 128-57.307 128-128S198.693 0 128 0Z"/>
  <path fill="#FFF" d="M190.119 77.645c-1.915 1.27-36.363 15.35-67.485 28.3-15.399 6.413-27.873 11.596-36.076 15.051-14.503 6.139-15.162 6.825-15.162 6.825s-1.13-3.85 10.785-11.364c11.915-7.514 18.684-10.308 18.684-10.308l73.392-46.273s3.96-2.402 6.362-1.13c0 0 2.173.714 1.587 3.116-.458 1.713-3.102 4.79-3.102 4.79s-47.526 43.047-54.368 49.734c-1.729 1.714-2.516 2.288-2.83 2.57-1.017.828-2.63 2.264-4.324 3.798-3.966 3.56-8.82 7.937-8.82 7.937l.081-.133s-.332.3-.66.628a10.514 10.514 0 0 0-.634.742s-.013.198-.268.476c-.229.352-.634.7-.634.7s-.09 7.022-.216 12.269c-.14 5.654-.267 11.681-.267 11.681-.102 1.37-.255 3.469-.864 4.524-.61 1.056-1.373 1.635-1.933 1.939-.56.305-.965.305-.965.305l-24.046-.356s-2.288.05-3.446-1.005c-1.158-1.054-.356-3.34-.356-3.34s9.736-24.642 21.234-44.651c11.499-20.01 24.046-38.255 31.927-47.58 7.88-9.325 22.387-23.232 22.387-23.232s2.288-1.256 4.222-1.307c1.935-.05 4.375.853 4.375.853s52.306 20.615 60.288 27.281c0 0 1.832 1.257 2.034 2.614.204 1.357-1.02 2.609-1.02 2.609Z"/>
</svg>
