<?xml version="1.0" encoding="UTF-8"?>
<svg xmlns="http://www.w3.org/2000/svg" width="256" height="256" viewBox="0 0 256 256">
  <path fill="#25D366" d="M128 256c70.692 0 128-57.308 128-128C256 57.308 198.692 0 128 0 57.308 0 0 57.308 0 128c0 70.692 57.308 128 128 128Z"/>
  <path fill="#FFF" d="M186.83 68.172c-15.646-15.648-36.545-24.297-58.763-24.316-45.831 0-83.153 37.32-83.173 83.151-.008 14.648 3.807 28.98 11.089 41.606l-11.785 43.035 44.043-11.547a83.034 83.034 0 0 0 39.802 10.127h.033c45.816 0 83.143-37.34 83.164-83.169.01-22.215-8.626-43.125-24.41-58.887ZM128.067 195.148h-.027a69.024 69.024 0 0 1-35.17-9.639l-2.524-1.5-26.156 6.859 6.983-25.489-1.646-2.62a68.86 68.86 0 0 1-10.56-36.761c.015-38.076 31.01-69.07 69.127-69.07 18.456.008 35.808 7.207 48.86 20.273 13.05 13.064 20.229 30.418 20.22 48.895-.016 38.08-31.01 69.053-69.106 69.053Z"/>
  <path fill="#FFF" d="M172.268 143.585c-2.079-1.04-12.298-6.069-14.205-6.753-1.908-.685-3.292-1.03-4.68.85-1.386 1.862-5.374 6.405-6.585 7.73-1.212 1.327-2.424 1.496-4.504.457-2.079-1.04-8.77-3.232-16.697-10.304-6.172-5.503-10.338-12.3-11.55-14.38-1.21-2.081-.13-3.205.91-4.242.936-.93 2.079-2.424 3.12-3.636 1.04-1.212 1.385-2.08 2.078-3.466.694-1.387.347-2.6-.174-3.637-.52-1.04-4.68-11.282-6.415-15.447-1.688-4.055-3.405-3.505-4.68-3.57-1.21-.06-2.599-.073-3.984-.073-1.385 0-3.637.52-5.544 2.6-1.908 2.08-7.283 7.111-7.283 17.353 0 10.242 7.456 20.136 8.496 21.523 1.04 1.386 14.65 22.37 35.515 31.37 4.961 2.141 8.84 3.421 11.85 4.38 4.982 1.582 9.514 1.36 13.092.824 3.994-.595 12.298-5.024 14.033-9.883 1.734-4.858 1.734-9.023 1.212-9.883-.521-.86-1.906-1.385-3.985-2.425Z"/>
</svg>
