<?xml version="1.0" encoding="UTF-8"?>
<svg xmlns="http://www.w3.org/2000/svg" width="256" height="256" viewBox="0 0 256 256">
  <path fill="#21759B" d="M128 0C57.29 0 0 57.29 0 128s57.29 128 128 128 128-57.29 128-128S198.71 0 128 0zm-55.375 128c0-30.57 17.49-56.979 42.983-69.75-20.613 11.881-34.483 34.039-34.483 59.466 0-14.212 19.75-26.05 42.975-26.05 18.312 0 29.75 11.812 29.75 30.5 0 12.813-7.875 29.75-20.625 49.25l25.25-69.562-18.875-5.125c1.316 2.379 2.125 5.059 2.125 8.188 0 9.01-8.01 16.276-17.89 16.276-9.881 0-17.89-7.266-17.89-16.275 0-3.13.81-5.81 2.125-8.188l-30.654 8.32a77.405 77.405 0 0 0-4.791 26.95zm55.375 55.75c-12.77 0-24.786-3.329-35.188-9.163l29.282-85.012a29.053 29.053 0 0 0 5.906.626c8.608 0 16.25-3.992 21.163-10.168a16.098 16.098 0 0 0 2.084 1.502l-23.247 93.215zm44.562-4.875C187.949 165.596 197 147.8 197 128c0-38.113-30.887-69-69-69s-69 30.887-69 69c0 19.8 9.07 37.596 23.457 49.4-30.25-13.6-51.307-44.213-51.307-79.588C31.15 60.899 74.049 18 127.963 18c53.913 0 96.887 42.899 96.887 96.812 0 35.375-21.131 65.988-51.371 79.588l-.917.475z"/>
</svg>
